<svg width="59" height="55" viewBox="0 0 59 55" fill="none" xmlns="http://www.w3.org/2000/svg">
<path opacity="0.5" d="M39.1611 3.25189C37.0438 3.2639 35.0167 4.05923 33.5195 5.46544C32.0223 6.87165 31.1755 8.7754 31.1627 10.764V25.7883L47.1595 25.7883C49.2808 25.7883 51.3152 24.9969 52.8151 23.5881C53.5579 22.8905 54.147 22.0624 54.549 21.151C54.9509 20.2396 55.1578 19.2627 55.1578 18.2762C55.1578 17.2897 54.9509 16.3128 54.549 15.4014C54.147 14.49 53.5579 13.6619 52.8152 12.9643C52.0724 12.2667 51.1907 11.7134 50.2203 11.3359C49.2499 10.9584 48.2098 10.764 47.1595 10.764C47.1586 8.77194 46.3156 6.86168 44.8158 5.45306C43.316 4.04444 41.2821 3.25272 39.1611 3.25189Z" fill="#229451"/>
<path opacity="0.5" d="M11.3723 29.3499C9.27664 29.3863 7.27988 30.1938 5.81152 31.5986C4.34316 33.0034 3.52051 34.8934 3.52051 36.8621C3.52051 38.8307 4.34316 40.7207 5.81153 42.1255C7.27989 43.5304 9.27665 44.3378 11.3723 44.3742C11.3723 46.3666 12.215 48.2773 13.715 49.6861C15.215 51.0949 17.2494 51.8864 19.3707 51.8864C21.492 51.8864 23.5264 51.0949 25.0264 49.6861C26.5264 48.2773 27.3691 46.3666 27.3691 44.3742L27.3691 29.3499L11.3723 29.3499Z" fill="#229451"/>
<path d="M31.1779 29.3521V44.3764C31.1779 46.3687 32.0205 48.2795 33.5205 49.6883C35.0205 51.0971 37.0549 51.8885 39.1762 51.8885C41.2975 51.8885 43.3319 51.0971 44.8319 49.6883C46.3319 48.2795 47.1746 46.3687 47.1746 44.3764C49.2703 44.34 51.2671 43.5325 52.7354 42.1277C54.2038 40.7228 55.0264 38.8329 55.0264 36.8642C55.0264 34.8956 54.2038 33.0056 52.7354 31.6008C51.2671 30.1959 49.2703 29.3884 47.1746 29.3521L31.1779 29.3521Z" fill="#229451"/>
<path d="M27.383 25.7888L27.383 10.7645C27.4027 9.76631 27.2103 8.77444 26.8172 7.84686C26.4241 6.91928 25.8381 6.07458 25.0934 5.36213C24.3487 4.64968 23.4603 4.08378 22.4802 3.69746C21.5 3.31114 20.4477 3.11216 19.3847 3.11216C18.3217 3.11216 17.2694 3.31114 16.2892 3.69746C15.309 4.08378 14.4206 4.64968 13.676 5.36213C12.9313 6.07458 12.3453 6.91929 11.9521 7.84687C11.559 8.77445 11.3667 9.76631 11.3863 10.7645C9.26501 10.7645 7.2306 11.556 5.73061 12.9648C4.23063 14.3736 3.38795 16.2843 3.38795 18.2767C3.38795 20.269 4.23063 22.1798 5.73061 23.5886C7.2306 24.9974 9.26502 25.7888 11.3863 25.7888L27.383 25.7888Z" fill="#229451"/>
</svg>
