<svg xmlns="http://www.w3.org/2000/svg" width="29.57" height="29.57" viewBox="0 0 29.57 29.57"><defs><style>.a,.b{fill:#fff;}.a{opacity:0.5;}</style></defs><g transform="translate(0 0)"><path class="a" d="M288.669,105.731a4.075,4.075,0,0,0-5.728,0l-5.728,5.728,5.728,5.728a4.05,4.05,0,0,0,5.728-5.728A4.052,4.052,0,0,0,288.669,105.731Z" transform="translate(-259.091 131.027) rotate(-45)"/><path class="a" d="M57.918,105.729a4.051,4.051,0,0,0-5.728,5.728,4.05,4.05,0,0,0,5.728,5.728l5.728-5.728Z" transform="translate(-109.996 -18.066) rotate(-45)"/><path class="b" d="M162.471,226.209l-5.728,5.728a4.05,4.05,0,0,0,5.728,5.728,4.051,4.051,0,0,0,5.728-5.728Z" transform="translate(-259.089 -29.327) rotate(-45)"/><path class="b" d="M162.472,12.641,168.2,6.913a4.051,4.051,0,1,0-5.728-5.728,4.05,4.05,0,0,0-5.728,5.728Z" transform="translate(-109.996 119.768) rotate(-45)"/></g></svg>